<?xml version="1.0" encoding="UTF-8" standalone="no"?>
<!-- Generator: Adobe Illustrator 25.4.1, SVG Export Plug-In . SVG Version: 6.00 Build 0)  -->

<svg
   version="1.1"
   x="0px"
   y="0px"
   viewBox="0 0 283.44 283.46"
   style="enable-background:new 0 0 283.44 283.46;"
   xml:space="preserve"
   id="svg13"
   sodipodi:docname="TUW.svg"
   inkscape:version="1.2.2 (b0a8486541, 2022-12-01)"
   xmlns:inkscape="http://www.inkscape.org/namespaces/inkscape"
   xmlns:sodipodi="http://sodipodi.sourceforge.net/DTD/sodipodi-0.dtd"
   xmlns="http://www.w3.org/2000/svg"
   xmlns:svg="http://www.w3.org/2000/svg"><defs
   id="defs17">
	
	
</defs><sodipodi:namedview
   id="namedview15"
   pagecolor="#ffffff"
   bordercolor="#000000"
   borderopacity="0.25"
   inkscape:showpageshadow="2"
   inkscape:pageopacity="0.0"
   inkscape:pagecheckerboard="0"
   inkscape:deskcolor="#d1d1d1"
   showgrid="false"
   inkscape:zoom="0.83256899"
   inkscape:cx="141.73"
   inkscape:cy="141.73"
   inkscape:window-width="1714"
   inkscape:window-height="1026"
   inkscape:window-x="0"
   inkscape:window-y="0"
   inkscape:window-maximized="1"
   inkscape:current-layer="svg13" />
<style
   type="text/css"
   id="style2">
	.st0{display:none;}
	.st1{fill:#FFFFFF;stroke:#1D1D1B;}
	.st2{fill-rule:evenodd;clip-rule:evenodd;fill:#006699;}
</style>
<g
   id="Hintergrund"
   class="st0">
</g>
<g
   id="Hilfslinien_anzeigen"
   class="st0">
</g>
<g
   id="g10"
   style="fill:#1c2852;fill-opacity:1">
		<path
   class="st2"
   d="m 202.75,138.27 c 0.46,-0.08 0.8,-0.14 1.25,-0.25 11.39,-2.89 19.88,-13.87 19.88,-26.08 l -0.26,-83.47 h 30.87 v 83.91 c 0.03,29.16 -22.11,53.41 -50.49,56.41 l -1.25,0.13 z m -9.18,30.65 -1.6,-0.13 c -28.37,-2.96 -50.31,-26.94 -50.31,-56.1 V 28.48 h 30.67 l -0.05,83.47 c 0,12.21 8.49,23.19 19.88,26.08 0.5,0.12 0.89,0.2 1.4,0.29 z m -74.93,85.53 v -49.89 h -9.74 v 49.89 z m 66.22,0 v -8.69 h -23.12 v -12.12 h 19.69 v -8.69 h -19.69 v -11.7 h 23.12 v -8.69 H 152 v 49.89 z m 69.77,0 v -49.89 h -9.74 v 30.55 l -19.76,-30.55 h -8.69 v 49.89 h 9.74 v -30.62 l 19.76,30.62 z M 85.72,204.56 H 75.56 l -7.78,31.46 -9.11,-31.46 h -7.29 l -9.11,31.46 -7.71,-31.46 H 24.42 l 13.31,49.89 h 8.13 l 9.18,-30.27 9.18,30.27 h 8.13 z M 21.79,28.48 H 127.65 V 58.75 H 21.79 Z M 60.1,168.12 V 67.55 H 90.37 V 168.13 H 60.1 Z M 255.11,0 c 15.65,0 28.29,12.7 28.29,28.36 l 0.06,226.74 c 0,15.66 -12.74,28.36 -28.39,28.36 H 28.34 C 12.7,283.46 0,270.77 0,255.11 L 0.02,28.36 C 0.02,12.7 12.68,0 28.32,0 Z"
   id="path8"
   style="fill:#1c2852;fill-opacity:1" />
	</g>
</svg>
