<?xml version="1.0" encoding="UTF-8" standalone="no"?>
<svg
   version="1.0"
   width="283.5"
   height="283.5"
   viewBox="0 0 283.5 283.5"
   id="svg2"
   xml:space="preserve"
   sodipodi:docname="TUWlight.svg"
   inkscape:version="1.2.2 (b0a8486541, 2022-12-01)"
   xmlns:inkscape="http://www.inkscape.org/namespaces/inkscape"
   xmlns:sodipodi="http://sodipodi.sourceforge.net/DTD/sodipodi-0.dtd"
   xmlns="http://www.w3.org/2000/svg"
   xmlns:svg="http://www.w3.org/2000/svg"><sodipodi:namedview
     id="namedview1"
     pagecolor="#ffffff"
     bordercolor="#000000"
     borderopacity="0.25"
     inkscape:showpageshadow="2"
     inkscape:pageopacity="0.0"
     inkscape:pagecheckerboard="0"
     inkscape:deskcolor="#d1d1d1"
     inkscape:zoom="1.9912695"
     inkscape:cx="152.91752"
     inkscape:cy="145.38464"
     inkscape:window-width="2560"
     inkscape:window-height="1323"
     inkscape:window-x="0"
     inkscape:window-y="0"
     inkscape:window-maximized="1"
     inkscape:current-layer="svg2"
     showgrid="false" /><defs
     id="defs5" /><g
     id="g3197"
     transform="matrix(1.25,0,0,-1.25,-66.25,544.125)"><path
       d="m 257.1,435.3 c 12.5,0 22.6,-10.1 22.6,-22.7 l 0.1,-181.4 c 0,-12.5 -10.2,-22.7 -22.7,-22.7 H 75.68 C 63.17,208.5 53,218.7 53,231.2 l 0.02,181.4 c 0,12.6 10.13,22.7 22.65,22.7 z"
       id="path2425"
       style="fill:#ffe4e6;fill-opacity:0.50000001;fill-rule:evenodd;stroke:none" /><path
       d="m 101.1,381.3 h 24.2 v -80.5 h -24.2 z"
       id="path2423"
       style="fill:#f43f5e;fill-opacity:1;fill-rule:evenodd;stroke:none" /><path
       d="M 70.44,412.5 H 155.1 V 388.3 H 70.44 Z"
       id="path2421"
       style="fill:#f43f5e;fill-opacity:1;fill-rule:evenodd;stroke:none" /><path
       d="m 121.3,271.2 h -8.1 l -6.2,-25.1 -7.3,25.1 h -5.83 l -7.29,-25.1 -6.17,25.1 h -8.12 l 10.65,-39.9 h 6.5 l 7.34,24.2 7.32,-24.2 h 6.5 z"
       id="path2419"
       style="fill:#f43f5e;fill-opacity:1;fill-rule:evenodd;stroke:none" /><path
       d="m 256.7,231.8 v 39.9 h -7.8 v -24.5 l -15.8,24.5 h -6.9 v -39.9 h 7.8 v 24.5 l 15.8,-24.5 z"
       id="path2417"
       style="fill:#f43f5e;fill-opacity:1;fill-rule:evenodd;stroke:none" /><path
       d="m 200.9,231.8 v 6.9 h -18.5 v 9.7 h 15.7 v 7 h -15.7 v 9.3 h 18.5 v 7 h -26.3 v -39.9 z"
       id="path2415"
       style="fill:#f43f5e;fill-opacity:1;fill-rule:evenodd;stroke:none" /><path
       d="m 147.9,271.7 h -7.8 v -39.9 h 7.8 z"
       id="path2413"
       style="fill:#f43f5e;fill-opacity:1;fill-rule:evenodd;stroke:none" /><path
       d="m 207.9,300.2 -1.3,0.1 c -22.7,2.4 -40.3,21.5 -40.3,44.9 v 67.3 h 24.6 l -0.1,-66.7 c 0,-9.8 6.8,-18.6 15.9,-20.9 0.4,-0.1 0.7,-0.2 1.2,-0.2 z"
       id="path2411"
       style="fill:#f43f5e;fill-opacity:1;fill-rule:evenodd;stroke:none" /><path
       d="m 215.2,324.7 c 0.4,0.1 0.6,0.1 1,0.2 9.1,2.3 15.9,11.1 15.9,20.9 l -0.2,66.7 h 24.7 v -67.1 c 0,-23.3 -17.7,-42.7 -40.4,-45.1 l -1,-0.1"
       id="path19"
       style="fill:#f43f5e;fill-opacity:1;fill-rule:evenodd;stroke:none" /></g></svg>
